<?xml version="1.0" standalone="no"?><!DOCTYPE svg PUBLIC "-//W3C//DTD SVG 1.1//EN" "http://www.w3.org/Graphics/SVG/1.1/DTD/svg11.dtd"><svg t="1663499678184" class="icon" viewBox="0 0 1024 1024" version="1.1" xmlns="http://www.w3.org/2000/svg" p-id="10113" xmlns:xlink="http://www.w3.org/1999/xlink" width="25" height="25"><path d="M332.16 459.904H127.744A127.872 127.872 0 0 1 0 332.16V127.744C0 57.344 57.28 0 127.744 0h204.416c70.464 0 127.744 57.344 127.744 127.744V332.16a127.872 127.872 0 0 1-127.744 127.744zM127.744 51.072c-42.304 0-76.672 34.368-76.672 76.672V332.16a76.8 76.8 0 0 0 76.672 76.672h204.416A76.8 76.8 0 0 0 408.832 332.16V127.744A76.8 76.8 0 0 0 332.16 51.072H127.744zM894.272 459.904h-204.416A127.872 127.872 0 0 1 562.112 332.16V127.744C562.112 57.344 619.392 0 689.856 0h204.416c70.4 0 127.744 57.344 127.744 127.744V332.16a127.872 127.872 0 0 1-127.744 127.744zM689.856 51.072a76.8 76.8 0 0 0-76.672 76.672V332.16a76.8 76.8 0 0 0 76.672 76.672h204.416a76.8 76.8 0 0 0 76.608-76.672V127.744c0-42.304-34.368-76.672-76.608-76.672h-204.416zM332.16 1022.016H127.744a127.872 127.872 0 0 1-127.744-127.744V689.92a128 128 0 0 1 127.744-127.808h204.416c70.464 0 127.744 57.344 127.744 127.808v204.352a127.872 127.872 0 0 1-127.744 127.744zM127.744 613.184a76.8 76.8 0 0 0-76.672 76.672v204.352c0 42.304 34.368 76.608 76.672 76.608h204.416c42.24 0 76.672-34.304 76.672-76.608v-204.352a76.8 76.8 0 0 0-76.672-76.672H127.744zM894.272 1022.016h-204.416a127.872 127.872 0 0 1-127.744-127.744V689.92a128 128 0 0 1 127.744-127.808h204.416a128 128 0 0 1 127.744 127.808v204.352a127.872 127.872 0 0 1-127.744 127.744z m-204.416-408.832a76.8 76.8 0 0 0-76.672 76.672v204.352c0 42.304 34.432 76.608 76.672 76.608h204.416c42.24 0 76.608-34.304 76.608-76.608v-204.352a76.8 76.8 0 0 0-76.608-76.672h-204.416z" fill="#d81e06" p-id="10114"></path></svg>